<mxfile host="app.diagrams.net" agent="Mozilla/5.0 (X11; Linux x86_64) AppleWebKit/537.36 (KHTML, like Gecko) Chrome/128.0.0.0 Safari/537.36" version="26.0.16">
  <diagram name="Page-1" id="-13llSExpNotjnPZWHXG">
    <mxGraphModel dx="878" dy="497" grid="1" gridSize="10" guides="1" tooltips="1" connect="1" arrows="1" fold="1" page="1" pageScale="1" pageWidth="850" pageHeight="1100" background="#ffffff" math="0" shadow="1">
      <root>
        <mxCell id="0" />
        <mxCell id="1" parent="0" />
        <mxCell id="obd2GN47xU8rqrAG63Pq-4" style="edgeStyle=orthogonalEdgeStyle;rounded=0;orthogonalLoop=1;jettySize=auto;html=1;entryX=0.5;entryY=1;entryDx=0;entryDy=0;strokeWidth=2;" parent="1" source="obd2GN47xU8rqrAG63Pq-2" target="obd2GN47xU8rqrAG63Pq-3" edge="1">
          <mxGeometry relative="1" as="geometry">
            <Array as="points">
              <mxPoint x="455" y="200" />
              <mxPoint x="360" y="200" />
            </Array>
          </mxGeometry>
        </mxCell>
        <mxCell id="obd2GN47xU8rqrAG63Pq-8" style="edgeStyle=orthogonalEdgeStyle;rounded=0;orthogonalLoop=1;jettySize=auto;html=1;entryX=0;entryY=0.5;entryDx=0;entryDy=0;strokeWidth=2;" parent="1" source="obd2GN47xU8rqrAG63Pq-2" target="obd2GN47xU8rqrAG63Pq-7" edge="1">
          <mxGeometry relative="1" as="geometry">
            <Array as="points">
              <mxPoint x="455" y="330" />
            </Array>
          </mxGeometry>
        </mxCell>
        <mxCell id="obd2GN47xU8rqrAG63Pq-10" value="" style="edgeStyle=orthogonalEdgeStyle;rounded=0;orthogonalLoop=1;jettySize=auto;html=1;strokeWidth=2;" parent="1" source="obd2GN47xU8rqrAG63Pq-2" target="obd2GN47xU8rqrAG63Pq-9" edge="1">
          <mxGeometry relative="1" as="geometry" />
        </mxCell>
        <mxCell id="obd2GN47xU8rqrAG63Pq-2" value="&lt;b&gt;Raspberry PI Pico W&lt;/b&gt;" style="rounded=0;whiteSpace=wrap;html=1;strokeWidth=2;" parent="1" vertex="1">
          <mxGeometry x="360" y="230" width="190" height="70" as="geometry" />
        </mxCell>
        <mxCell id="obd2GN47xU8rqrAG63Pq-3" value="&lt;b&gt;Buzzer&lt;/b&gt;" style="whiteSpace=wrap;html=1;aspect=fixed;strokeWidth=2;" parent="1" vertex="1">
          <mxGeometry x="320" y="50" width="80" height="80" as="geometry" />
        </mxCell>
        <mxCell id="obd2GN47xU8rqrAG63Pq-6" style="edgeStyle=orthogonalEdgeStyle;rounded=0;orthogonalLoop=1;jettySize=auto;html=1;entryX=0.75;entryY=0;entryDx=0;entryDy=0;strokeWidth=2;" parent="1" source="obd2GN47xU8rqrAG63Pq-5" target="obd2GN47xU8rqrAG63Pq-2" edge="1">
          <mxGeometry relative="1" as="geometry" />
        </mxCell>
        <mxCell id="obd2GN47xU8rqrAG63Pq-5" value="&lt;b&gt;Microfone&lt;/b&gt;" style="whiteSpace=wrap;html=1;aspect=fixed;strokeWidth=2;" parent="1" vertex="1">
          <mxGeometry x="620" y="120" width="80" height="80" as="geometry" />
        </mxCell>
        <mxCell id="obd2GN47xU8rqrAG63Pq-7" value="&lt;b&gt;Display OLED&lt;/b&gt;" style="whiteSpace=wrap;html=1;aspect=fixed;strokeWidth=2;" parent="1" vertex="1">
          <mxGeometry x="640" y="290" width="80" height="80" as="geometry" />
        </mxCell>
        <mxCell id="obd2GN47xU8rqrAG63Pq-9" value="&lt;b&gt;Matriz de LED&#39;s&lt;/b&gt;" style="whiteSpace=wrap;html=1;aspect=fixed;strokeWidth=2;" parent="1" vertex="1">
          <mxGeometry x="240" y="320" width="80" height="80" as="geometry" />
        </mxCell>
        <mxCell id="Dp_wZoqPnoQ3-ChnT85B-1" value="&lt;b&gt;GPIO14 - SDA&lt;/b&gt;" style="text;html=1;align=center;verticalAlign=middle;whiteSpace=wrap;rounded=0;" vertex="1" parent="1">
          <mxGeometry x="540" y="345" width="110" height="30" as="geometry" />
        </mxCell>
        <mxCell id="Dp_wZoqPnoQ3-ChnT85B-2" value="&lt;b&gt;GPIO15 - SCL&lt;/b&gt;" style="text;html=1;align=center;verticalAlign=middle;whiteSpace=wrap;rounded=0;" vertex="1" parent="1">
          <mxGeometry x="540" y="330" width="110" height="30" as="geometry" />
        </mxCell>
        <mxCell id="Dp_wZoqPnoQ3-ChnT85B-3" value="&lt;b&gt;GPIO28&lt;/b&gt;" style="text;html=1;align=center;verticalAlign=middle;whiteSpace=wrap;rounded=0;" vertex="1" parent="1">
          <mxGeometry x="540" y="130" width="110" height="30" as="geometry" />
        </mxCell>
        <mxCell id="Dp_wZoqPnoQ3-ChnT85B-4" value="&lt;b&gt;GPIO21&lt;/b&gt;" style="text;html=1;align=center;verticalAlign=middle;whiteSpace=wrap;rounded=0;" vertex="1" parent="1">
          <mxGeometry x="350" y="170" width="110" height="30" as="geometry" />
        </mxCell>
        <mxCell id="Dp_wZoqPnoQ3-ChnT85B-5" value="&lt;b&gt;GPIO7, 5 linhas por 5 colunas&lt;/b&gt;" style="text;html=1;align=center;verticalAlign=middle;whiteSpace=wrap;rounded=0;" vertex="1" parent="1">
          <mxGeometry x="225" y="410" width="110" height="30" as="geometry" />
        </mxCell>
      </root>
    </mxGraphModel>
  </diagram>
</mxfile>
